<svg width="318" height="250" viewBox="0 0 318 250" fill="none" xmlns="http://www.w3.org/2000/svg">
<path d="M310.532 142.7L310.032 144.4C308.732 150.2 307.432 156 306.632 161.8C306.232 164.3 306.132 166.8 305.832 169.3C305.632 169.8 305.932 170.3 306.332 170.4C306.832 170.5 307.232 170.3 307.432 169.8C308.532 167.5 309.732 165.3 310.632 162.8C312.632 157.2 313.632 151.4 315.232 145.7C315.332 145.4 316.632 140.8 317.032 138.9C317.532 136.3 315.432 135.1 315.132 135C314.932 135 313.332 135 311.332 136.2C307.032 138.7 296.632 145.2 295.332 146L290.032 149.1C287.432 150.4 287.632 152.6 288.932 152.9C289.332 153 290.532 153 291.732 152.3L297.332 149.7C298.432 149.2 305.432 145.4 310.532 142.7Z" fill="black"/>
<path fill-rule="evenodd" clip-rule="evenodd" d="M155.635 136.534C156.699 128.71 158.631 120.03 161.365 111.53C164.269 102.686 168.235 93.7227 173.203 85.8942C178.689 77.4649 185.296 71.5136 190.929 69.5778C196.912 67.3858 201.832 69.1651 203.775 76.5418C205.717 83.9185 203.7 92.7712 199.64 101.474C194.148 113.539 184.752 125.609 177.472 133.155C172.271 138.514 166.88 143.352 161.65 147.413C160.352 187.867 180.014 205.891 208.021 204.694C222.643 203.971 239.535 197.731 257.041 187.298C274.019 177.034 291.446 163.138 308.137 144.171C308.566 143.526 309.099 143.575 309.373 143.924C309.562 144.445 309.318 145.395 308.799 145.996C292.158 167.127 274.266 184.004 256.7 195.691C238.171 207.975 220.302 214.162 204.708 215.049C174.143 216.914 152.922 196.624 154.225 152.534C148.282 156.457 142.403 159.343 136.605 161.84C123.328 167.077 110.585 168.51 99.3687 166.842C84.5882 164.49 70.4219 157.946 59.5124 146.37C48.5132 134.75 40.7707 118.098 38.5932 96.4795C37.8923 89.0717 37.6253 81.2352 38.146 72.9305C38.6668 64.6257 39.8856 55.8084 41.8124 46.9115C42.616 43.2405 43.5942 39.4414 44.662 35.6865C45.4006 33.0536 46.1441 30.6372 47.0621 28.0926C47.6458 26.4536 48.2246 24.5982 49.0676 22.6589C49.6563 21.2364 50.3396 20.0745 51.2023 19.0009L52.0848 18.7931C52.0049 19.1819 51.8353 19.5265 51.6558 19.4382L51.6608 19.6546L49.5398 27.8139L45.6863 45.6077C44.1884 53.8596 43.4882 62.0761 43.1321 69.8198C42.781 77.78 42.8636 85.3116 43.5546 92.2865C45.4483 113.123 52.9067 128.993 63.3627 140.132C73.9133 151.532 87.5461 158.027 101.883 160.375C112.656 162.038 124.87 160.773 137.619 155.704C143.243 153.335 148.857 150.534 154.536 146.694C154.816 143.407 155.183 140.021 155.635 136.534ZM161.955 141.356C166.779 137.595 171.559 133.241 176.297 128.296C182.709 121.607 191.157 110.783 195.886 100.269C198.755 93.7616 200.292 87.2413 198.753 81.9893C197.224 77.1702 193.65 76.0532 189.516 77.6575C185.383 79.2617 180.696 83.8035 176.93 89.8692C172.736 96.5799 169.798 103.909 167.567 111.158C165.167 118.752 163.655 126.355 162.835 133.228C162.426 136.023 162.132 138.732 161.955 141.356Z" fill="black"/>
</svg>
