<svg version="1.1" id="Layer_1" xmlns="http://www.w3.org/2000/svg" xmlns:xlink="http://www.w3.org/1999/xlink" x="0px" y="0px"
	 width="100%" viewBox="0 0 1128 238" enable-background="new 0 0 1128 238" xml:space="preserve">
<path fill="#FEFEFE" opacity="1.000000" stroke="none" 
	d="
M826.000000,239.000000 
	C550.666687,239.000000 275.833344,239.000000 1.000000,239.000000 
	C1.000000,159.666672 1.000000,80.333336 1.000000,1.000000 
	C377.000000,1.000000 753.000000,1.000000 1129.000000,1.000000 
	C1129.000000,80.333336 1129.000000,159.666672 1129.000000,239.000000 
	C1028.166626,239.000000 927.333313,239.000000 826.000000,239.000000 
M37.452370,115.056366 
	C37.347485,120.045212 36.900547,125.054451 37.196602,130.019394 
	C38.517372,152.169006 49.702129,168.817719 68.421082,174.262741 
	C76.669121,176.661972 85.807915,177.257080 94.443680,176.801575 
	C112.059982,175.872406 125.226112,167.144012 132.826294,150.906830 
	C137.072235,141.835739 138.346786,132.124542 138.063080,122.188690 
	C137.001633,85.013771 111.609833,64.782249 74.941498,71.871460 
	C53.734844,75.971413 40.772518,90.671104 37.452370,115.056366 
M212.116592,71.009918 
	C207.956619,70.985237 203.789658,70.791901 199.637863,70.964226 
	C178.386505,71.846252 161.805695,84.760437 156.156769,105.104744 
	C152.702499,117.545204 152.603622,130.179657 156.098389,142.621689 
	C160.479813,158.220383 170.138138,169.322601 185.717224,174.488464 
	C198.033661,178.572464 210.666916,178.529724 223.006256,174.718460 
	C233.786865,171.388596 241.922501,164.422867 246.879089,154.119080 
	C251.875778,143.731934 252.029617,132.663315 251.541763,121.350082 
	C235.964005,121.350082 220.737381,121.350082 205.408722,121.350082 
	C205.408722,127.054581 205.408722,132.464874 205.408722,138.272141 
	C213.617920,138.272141 221.564911,138.272141 229.773056,138.272141 
	C229.337723,145.402710 226.572754,150.863358 221.152176,154.787659 
	C206.592758,165.328110 185.080460,158.815079 178.908310,141.971664 
	C174.881851,130.983673 174.810211,119.785767 178.037552,108.591980 
	C181.679962,95.958534 189.964905,89.432968 202.938217,88.749680 
	C216.245758,88.048790 223.314362,92.766953 228.553772,105.801682 
	C235.693604,105.801682 242.805557,105.801682 250.109253,105.801682 
	C248.697037,92.818764 242.485504,83.106339 231.266937,77.267433 
	C225.635803,74.336609 219.136368,73.074127 212.116592,71.009918 
M272.282318,129.499863 
	C272.282318,144.928802 272.282318,160.357758 272.282318,175.735107 
	C279.839142,175.735107 286.764832,175.735107 294.121155,175.735107 
	C294.121155,162.409454 294.121155,149.347809 294.121155,136.006241 
	C300.190002,136.006241 305.828064,135.966858 311.465393,136.015839 
	C319.188782,136.082962 323.570923,139.007111 326.366852,146.147720 
	C327.453217,148.922241 328.248535,151.825790 328.984924,154.719299 
	C330.776581,161.759491 332.456055,168.828247 334.141876,175.726532 
	C341.789825,175.726532 349.017700,175.726532 356.758209,175.726532 
	C353.717651,165.124512 350.926758,154.873032 347.819489,144.718384 
	C345.201477,136.162598 340.313812,129.569687 331.022552,127.333809 
	C330.896484,127.303467 330.890015,126.776146 330.815887,126.424522 
	C339.094574,123.619606 345.487671,118.756218 348.424194,110.161186 
	C354.589996,92.114059 344.683685,74.938782 325.732086,73.209007 
	C309.377594,71.716270 292.831970,72.311218 276.370422,72.007973 
	C275.104309,71.984650 273.834595,72.157524 272.282318,72.257523 
	C272.282318,91.244225 272.282318,109.872032 272.282318,129.499863 
M525.622803,155.019058 
	C522.173828,150.044846 517.614624,145.494308 515.519287,140.003540 
	C511.769104,130.176315 512.102905,119.747765 514.913757,109.527718 
	C518.653748,95.929573 527.147400,89.049141 540.588074,88.692322 
	C553.833313,88.340698 560.837646,93.552383 565.664795,107.368004 
	C572.740662,107.368004 579.820618,107.368004 587.260986,107.368004 
	C586.541504,93.570251 580.116089,83.751022 568.571655,77.195412 
	C558.229980,71.322815 546.937317,70.089882 535.294373,70.954895 
	C521.904236,71.949722 510.111084,76.796295 502.138458,87.767204 
	C487.333801,108.139503 487.178741,130.242859 497.100494,152.577011 
	C501.812469,163.183838 510.456848,170.305817 521.520630,174.096588 
	C535.197449,178.782669 549.023193,178.693832 562.549316,173.817368 
	C577.988647,168.251175 588.164490,152.861526 586.802734,138.247940 
	C579.686707,138.247940 572.574951,138.247940 565.361877,138.247940 
	C564.129456,148.915497 559.018433,156.446167 548.371094,158.597794 
	C540.817322,160.124237 533.122131,159.890991 525.622803,155.019058 
M595.965576,174.033386 
	C596.529419,174.689316 597.082031,175.904160 597.658875,175.915787 
	C604.304321,176.049698 610.953430,176.001190 617.537964,176.001190 
	C620.193665,168.138535 622.732605,160.621460 625.257507,153.145935 
	C637.929260,153.145935 650.236450,153.145935 662.743958,153.145935 
	C665.234680,160.755295 667.704041,168.299240 670.132996,175.719788 
	C677.623474,175.719788 684.850891,175.719788 692.581726,175.719788 
	C690.651367,170.332016 688.868652,165.349442 687.081238,160.368561 
	C676.969543,132.192047 666.887817,104.004623 656.658936,75.870712 
	C656.105835,74.349449 654.372864,72.239822 653.092957,72.170197 
	C646.306091,71.800995 639.488525,71.996719 632.630981,71.996719 
	C620.415100,105.948029 608.317200,139.571548 595.965576,174.033386 
M945.486755,154.778275 
	C946.332214,154.187683 947.172852,153.090927 948.023865,153.082809 
	C959.837891,152.970032 971.653442,153.006500 983.545776,153.006500 
	C986.102478,160.829819 988.570007,168.380386 990.958252,175.688171 
	C998.536499,175.688171 1005.752502,175.688171 1012.889832,175.688171 
	C1012.995605,175.209000 1013.104553,175.020111 1013.056946,174.887360 
	C1001.046448,141.384659 989.043213,107.879288 976.918884,74.417816 
	C976.542114,73.377853 974.929688,72.135818 973.859009,72.102753 
	C967.049622,71.892487 960.230591,71.995819 953.430542,71.995819 
	C940.973450,106.710968 928.632812,141.101440 916.208374,175.725647 
	C924.069458,175.725647 931.319031,175.725647 938.530029,175.725647 
	C940.805603,168.831207 942.994934,162.198151 945.486755,154.778275 
M439.345703,175.999344 
	C440.264526,175.238800 441.940796,174.514236 441.978943,173.711868 
	C442.221313,168.610184 442.102203,163.491333 442.102203,157.941437 
	C425.937561,157.941437 410.202820,157.941437 394.380432,157.941437 
	C394.380432,149.098511 394.380432,140.706940 394.380432,131.875793 
	C408.887329,131.875793 423.125549,131.875793 437.449585,131.875793 
	C437.449585,126.011436 437.449585,120.594200 437.449585,114.665741 
	C422.960785,114.665741 408.720337,114.665741 394.332825,114.665741 
	C394.332825,106.239845 394.332825,98.328918 394.332825,89.974426 
	C410.290649,89.974426 426.028564,89.974426 441.861023,89.974426 
	C441.861023,83.799614 441.861023,78.072121 441.861023,72.223251 
	C418.699310,72.223251 395.782288,72.223251 372.777588,72.223251 
	C372.777588,106.840012 372.777588,141.233459 372.777588,175.999680 
	C394.781433,175.999680 416.574493,175.999680 439.345703,175.999344 
M779.941589,122.268372 
	C790.814636,98.965477 779.830750,76.282173 754.510315,73.113594 
	C738.674072,71.131851 722.388000,72.744881 706.095947,72.744881 
	C706.095947,106.793427 706.095947,141.171234 706.095947,175.775681 
	C713.174377,175.775681 720.090698,175.775681 727.399597,175.775681 
	C727.399597,163.573944 727.399597,151.483017 727.399597,139.000824 
	C734.751953,139.000824 741.736023,139.296661 748.686035,138.936356 
	C761.324646,138.281128 772.491882,134.450226 779.941589,122.268372 
M854.501526,71.994308 
	C848.755310,71.994308 843.009094,71.994308 837.354431,71.994308 
	C837.354431,78.355743 837.354431,83.958275 837.354431,90.057205 
	C846.620911,90.057205 855.678284,90.057205 865.129761,90.057205 
	C865.129761,118.934364 865.129761,147.310379 865.129761,175.773346 
	C872.453735,175.773346 879.366882,175.773346 886.695801,175.773346 
	C886.695801,147.166977 886.695801,118.788628 886.695801,89.997940 
	C896.019775,89.997940 904.937317,89.997940 914.020813,89.997940 
	C914.020813,83.853386 914.020813,78.125549 914.020813,71.994308 
	C894.380310,71.994308 874.940552,71.994308 854.501526,71.994308 
M1026.564819,140.499756 
	C1026.564819,152.246078 1026.564819,163.992386 1026.564819,175.644775 
	C1048.731445,175.644775 1070.294922,175.644775 1091.788574,175.644775 
	C1091.788574,169.341812 1091.788574,163.395554 1091.788574,156.947296 
	C1077.204346,156.947296 1062.809326,156.947296 1047.976440,156.947296 
	C1047.976440,128.383530 1047.976440,100.324173 1047.976440,72.262009 
	C1040.592285,72.262009 1033.660034,72.262009 1026.564819,72.262009 
	C1026.564819,94.848709 1026.564819,117.174225 1026.564819,140.499756 
M801.564819,131.499756 
	C801.564819,146.242706 801.564819,160.985672 801.564819,175.707748 
	C809.070190,175.707748 815.983398,175.707748 822.806091,175.707748 
	C822.806091,141.027237 822.806091,106.639374 822.806091,72.266800 
	C815.572632,72.266800 808.641418,72.266800 801.564819,72.266800 
	C801.564819,91.855156 801.564819,111.177444 801.564819,131.499756 
z"/>
<path fill="#030303" opacity="1.000000" stroke="none" 
	d="
M37.544495,114.616379 
	C40.772518,90.671104 53.734844,75.971413 74.941498,71.871460 
	C111.609833,64.782249 137.001633,85.013771 138.063080,122.188690 
	C138.346786,132.124542 137.072235,141.835739 132.826294,150.906830 
	C125.226112,167.144012 112.059982,175.872406 94.443680,176.801575 
	C85.807915,177.257080 76.669121,176.661972 68.421082,174.262741 
	C49.702129,168.817719 38.517372,152.169006 37.196602,130.019394 
	C36.900547,125.054451 37.347485,120.045212 37.544495,114.616379 
M66.495499,149.931564 
	C80.213882,165.226700 104.223236,162.198578 111.951378,143.897720 
	C117.501945,130.753494 117.370583,117.190247 111.921249,104.011665 
	C107.685516,93.768036 99.528999,88.837051 88.412300,88.667633 
	C77.526230,88.501732 68.470245,92.103943 63.950314,102.440758 
	C57.038441,118.247787 57.125473,134.088074 66.495499,149.931564 
z"/>
<path fill="#030303" opacity="1.000000" stroke="none" 
	d="
M212.573090,71.033539 
	C219.136368,73.074127 225.635803,74.336609 231.266937,77.267433 
	C242.485504,83.106339 248.697037,92.818764 250.109253,105.801682 
	C242.805557,105.801682 235.693604,105.801682 228.553772,105.801682 
	C223.314362,92.766953 216.245758,88.048790 202.938217,88.749680 
	C189.964905,89.432968 181.679962,95.958534 178.037552,108.591980 
	C174.810211,119.785767 174.881851,130.983673 178.908310,141.971664 
	C185.080460,158.815079 206.592758,165.328110 221.152176,154.787659 
	C226.572754,150.863358 229.337723,145.402710 229.773056,138.272141 
	C221.564911,138.272141 213.617920,138.272141 205.408722,138.272141 
	C205.408722,132.464874 205.408722,127.054581 205.408722,121.350082 
	C220.737381,121.350082 235.964005,121.350082 251.541763,121.350082 
	C252.029617,132.663315 251.875778,143.731934 246.879089,154.119080 
	C241.922501,164.422867 233.786865,171.388596 223.006256,174.718460 
	C210.666916,178.529724 198.033661,178.572464 185.717224,174.488464 
	C170.138138,169.322601 160.479813,158.220383 156.098389,142.621689 
	C152.603622,130.179657 152.702499,117.545204 156.156769,105.104744 
	C161.805695,84.760437 178.386505,71.846252 199.637863,70.964226 
	C203.789658,70.791901 207.956619,70.985237 212.573090,71.033539 
z"/>
<path fill="#040404" opacity="1.000000" stroke="none" 
	d="
M272.282318,128.999847 
	C272.282318,109.872032 272.282318,91.244225 272.282318,72.257523 
	C273.834595,72.157524 275.104309,71.984650 276.370422,72.007973 
	C292.831970,72.311218 309.377594,71.716270 325.732086,73.209007 
	C344.683685,74.938782 354.589996,92.114059 348.424194,110.161186 
	C345.487671,118.756218 339.094574,123.619606 330.815887,126.424522 
	C330.890015,126.776146 330.896484,127.303467 331.022552,127.333809 
	C340.313812,129.569687 345.201477,136.162598 347.819489,144.718384 
	C350.926758,154.873032 353.717651,165.124512 356.758209,175.726532 
	C349.017700,175.726532 341.789825,175.726532 334.141876,175.726532 
	C332.456055,168.828247 330.776581,161.759491 328.984924,154.719299 
	C328.248535,151.825790 327.453217,148.922241 326.366852,146.147720 
	C323.570923,139.007111 319.188782,136.082962 311.465393,136.015839 
	C305.828064,135.966858 300.190002,136.006241 294.121155,136.006241 
	C294.121155,149.347809 294.121155,162.409454 294.121155,175.735107 
	C286.764832,175.735107 279.839142,175.735107 272.282318,175.735107 
	C272.282318,160.357758 272.282318,144.928802 272.282318,128.999847 
M293.990234,111.427597 
	C293.990234,113.529732 293.990234,115.631874 293.990234,117.970261 
	C301.291779,117.970261 308.092072,118.287827 314.849731,117.886963 
	C322.659149,117.423714 327.645447,111.866585 327.884430,104.211945 
	C328.116943,96.763412 323.964905,91.043480 316.472046,90.324265 
	C309.125275,89.619087 301.657867,90.170647 293.990234,90.170647 
	C293.990234,97.197601 293.990234,103.819160 293.990234,111.427597 
z"/>
<path fill="#030303" opacity="1.000000" stroke="none" 
	d="
M525.924194,155.236084 
	C533.122131,159.890991 540.817322,160.124237 548.371094,158.597794 
	C559.018433,156.446167 564.129456,148.915497 565.361877,138.247940 
	C572.574951,138.247940 579.686707,138.247940 586.802734,138.247940 
	C588.164490,152.861526 577.988647,168.251175 562.549316,173.817368 
	C549.023193,178.693832 535.197449,178.782669 521.520630,174.096588 
	C510.456848,170.305817 501.812469,163.183838 497.100494,152.577011 
	C487.178741,130.242859 487.333801,108.139503 502.138458,87.767204 
	C510.111084,76.796295 521.904236,71.949722 535.294373,70.954895 
	C546.937317,70.089882 558.229980,71.322815 568.571655,77.195412 
	C580.116089,83.751022 586.541504,93.570251 587.260986,107.368004 
	C579.820618,107.368004 572.740662,107.368004 565.664795,107.368004 
	C560.837646,93.552383 553.833313,88.340698 540.588074,88.692322 
	C527.147400,89.049141 518.653748,95.929573 514.913757,109.527718 
	C512.102905,119.747765 511.769104,130.176315 515.519287,140.003540 
	C517.614624,145.494308 522.173828,150.044846 525.924194,155.236084 
z"/>
<path fill="#030303" opacity="1.000000" stroke="none" 
	d="
M596.092407,173.614227 
	C608.317200,139.571548 620.415100,105.948029 632.630981,71.996719 
	C639.488525,71.996719 646.306091,71.800995 653.092957,72.170197 
	C654.372864,72.239822 656.105835,74.349449 656.658936,75.870712 
	C666.887817,104.004623 676.969543,132.192047 687.081238,160.368561 
	C688.868652,165.349442 690.651367,170.332016 692.581726,175.719788 
	C684.850891,175.719788 677.623474,175.719788 670.132996,175.719788 
	C667.704041,168.299240 665.234680,160.755295 662.743958,153.145935 
	C650.236450,153.145935 637.929260,153.145935 625.257507,153.145935 
	C622.732605,160.621460 620.193665,168.138535 617.537964,176.001190 
	C610.953430,176.001190 604.304321,176.049698 597.658875,175.915787 
	C597.082031,175.904160 596.529419,174.689316 596.092407,173.614227 
M632.903320,127.376770 
	C632.163208,129.807556 631.423035,132.238358 630.677063,134.688293 
	C639.825562,134.688293 648.367554,134.688293 657.346008,134.688293 
	C652.918640,121.123306 648.628479,107.978935 643.898071,93.485535 
	C639.966370,105.522575 636.525696,116.056068 632.903320,127.376770 
z"/>
<path fill="#030303" opacity="1.000000" stroke="none" 
	d="
M945.335510,155.171692 
	C942.994934,162.198151 940.805603,168.831207 938.530029,175.725647 
	C931.319031,175.725647 924.069458,175.725647 916.208374,175.725647 
	C928.632812,141.101440 940.973450,106.710968 953.430542,71.995819 
	C960.230591,71.995819 967.049622,71.892487 973.859009,72.102753 
	C974.929688,72.135818 976.542114,73.377853 976.918884,74.417816 
	C989.043213,107.879288 1001.046448,141.384659 1013.056946,174.887360 
	C1013.104553,175.020111 1012.995605,175.209000 1012.889832,175.688171 
	C1005.752502,175.688171 998.536499,175.688171 990.958252,175.688171 
	C988.570007,168.380386 986.102478,160.829819 983.545776,153.006500 
	C971.653442,153.006500 959.837891,152.970032 948.023865,153.082809 
	C947.172852,153.090927 946.332214,154.187683 945.335510,155.171692 
M957.922852,114.398735 
	C955.746704,121.141907 953.570557,127.885071 951.338623,134.801132 
	C960.559570,134.801132 969.167175,134.801132 978.157898,134.801132 
	C975.936829,127.878311 973.835327,121.241844 971.676636,114.624039 
	C969.486511,107.909500 967.239807,101.213417 964.709229,93.578056 
	C962.272705,100.992104 960.197266,107.307503 957.922852,114.398735 
z"/>
<path fill="#010101" opacity="1.000000" stroke="none" 
	d="
M438.856628,175.999512 
	C416.574493,175.999680 394.781433,175.999680 372.777588,175.999680 
	C372.777588,141.233459 372.777588,106.840012 372.777588,72.223251 
	C395.782288,72.223251 418.699310,72.223251 441.861023,72.223251 
	C441.861023,78.072121 441.861023,83.799614 441.861023,89.974426 
	C426.028564,89.974426 410.290649,89.974426 394.332825,89.974426 
	C394.332825,98.328918 394.332825,106.239845 394.332825,114.665741 
	C408.720337,114.665741 422.960785,114.665741 437.449585,114.665741 
	C437.449585,120.594200 437.449585,126.011436 437.449585,131.875793 
	C423.125549,131.875793 408.887329,131.875793 394.380432,131.875793 
	C394.380432,140.706940 394.380432,149.098511 394.380432,157.941437 
	C410.202820,157.941437 425.937561,157.941437 442.102203,157.941437 
	C442.102203,163.491333 442.221313,168.610184 441.978943,173.711868 
	C441.940796,174.514236 440.264526,175.238800 438.856628,175.999512 
z"/>
<path fill="#020202" opacity="1.000000" stroke="none" 
	d="
M779.755615,122.591797 
	C772.491882,134.450226 761.324646,138.281128 748.686035,138.936356 
	C741.736023,139.296661 734.751953,139.000824 727.399597,139.000824 
	C727.399597,151.483017 727.399597,163.573944 727.399597,175.775681 
	C720.090698,175.775681 713.174377,175.775681 706.095947,175.775681 
	C706.095947,141.171234 706.095947,106.793427 706.095947,72.744881 
	C722.388000,72.744881 738.674072,71.131851 754.510315,73.113594 
	C779.830750,76.282173 790.814636,98.965477 779.755615,122.591797 
M756.334839,117.905815 
	C762.179932,112.809647 762.124207,106.199188 760.538574,99.545532 
	C759.265198,94.202087 755.053894,90.769348 749.915161,90.255714 
	C742.577820,89.522324 735.112488,90.069054 727.756531,90.069054 
	C727.756531,100.683556 727.756531,111.073441 727.756531,121.769066 
	C731.892944,121.769066 735.751892,122.188660 739.480164,121.669762 
	C744.941711,120.909637 750.309692,119.477379 756.334839,117.905815 
z"/>
<path fill="#040404" opacity="1.000000" stroke="none" 
	d="
M855.001160,71.994308 
	C874.940552,71.994308 894.380310,71.994308 914.020813,71.994308 
	C914.020813,78.125549 914.020813,83.853386 914.020813,89.997940 
	C904.937317,89.997940 896.019775,89.997940 886.695801,89.997940 
	C886.695801,118.788628 886.695801,147.166977 886.695801,175.773346 
	C879.366882,175.773346 872.453735,175.773346 865.129761,175.773346 
	C865.129761,147.310379 865.129761,118.934364 865.129761,90.057205 
	C855.678284,90.057205 846.620911,90.057205 837.354431,90.057205 
	C837.354431,83.958275 837.354431,78.355743 837.354431,71.994308 
	C843.009094,71.994308 848.755310,71.994308 855.001160,71.994308 
z"/>
<path fill="#000000" opacity="1.000000" stroke="none" 
	d="
M1026.564819,139.999756 
	C1026.564819,117.174225 1026.564819,94.848709 1026.564819,72.262009 
	C1033.660034,72.262009 1040.592285,72.262009 1047.976440,72.262009 
	C1047.976440,100.324173 1047.976440,128.383530 1047.976440,156.947296 
	C1062.809326,156.947296 1077.204346,156.947296 1091.788574,156.947296 
	C1091.788574,163.395554 1091.788574,169.341812 1091.788574,175.644775 
	C1070.294922,175.644775 1048.731445,175.644775 1026.564819,175.644775 
	C1026.564819,163.992386 1026.564819,152.246078 1026.564819,139.999756 
z"/>
<path fill="#000000" opacity="1.000000" stroke="none" 
	d="
M801.564819,130.999756 
	C801.564819,111.177444 801.564819,91.855156 801.564819,72.266800 
	C808.641418,72.266800 815.572632,72.266800 822.806091,72.266800 
	C822.806091,106.639374 822.806091,141.027237 822.806091,175.707748 
	C815.983398,175.707748 809.070190,175.707748 801.564819,175.707748 
	C801.564819,160.985672 801.564819,146.242706 801.564819,130.999756 
z"/>
<path fill="#FDFDFD" opacity="1.000000" stroke="none" 
	d="
M66.277077,149.643372 
	C57.125473,134.088074 57.038441,118.247787 63.950314,102.440758 
	C68.470245,92.103943 77.526230,88.501732 88.412300,88.667633 
	C99.528999,88.837051 107.685516,93.768036 111.921249,104.011665 
	C117.370583,117.190247 117.501945,130.753494 111.951378,143.897720 
	C104.223236,162.198578 80.213882,165.226700 66.277077,149.643372 
z"/>
<path fill="#FCFCFC" opacity="1.000000" stroke="none" 
	d="
M293.990234,110.934158 
	C293.990234,103.819160 293.990234,97.197601 293.990234,90.170647 
	C301.657867,90.170647 309.125275,89.619087 316.472046,90.324265 
	C323.964905,91.043480 328.116943,96.763412 327.884430,104.211945 
	C327.645447,111.866585 322.659149,117.423714 314.849731,117.886963 
	C308.092072,118.287827 301.291779,117.970261 293.990234,117.970261 
	C293.990234,115.631874 293.990234,113.529732 293.990234,110.934158 
z"/>
<path fill="#F9F9F9" opacity="1.000000" stroke="none" 
	d="
M632.994202,126.983170 
	C636.525696,116.056068 639.966370,105.522575 643.898071,93.485535 
	C648.628479,107.978935 652.918640,121.123306 657.346008,134.688293 
	C648.367554,134.688293 639.825562,134.688293 630.677063,134.688293 
	C631.423035,132.238358 632.163208,129.807556 632.994202,126.983170 
z"/>
<path fill="#F9F9F9" opacity="1.000000" stroke="none" 
	d="
M958.022339,114.010818 
	C960.197266,107.307503 962.272705,100.992104 964.709229,93.578056 
	C967.239807,101.213417 969.486511,107.909500 971.676636,114.624039 
	C973.835327,121.241844 975.936829,127.878311 978.157898,134.801132 
	C969.167175,134.801132 960.559570,134.801132 951.338623,134.801132 
	C953.570557,127.885071 955.746704,121.141907 958.022339,114.010818 
z"/>
<path fill="#F8F8F8" opacity="1.000000" stroke="none" 
	d="
M756.026245,118.118683 
	C750.309692,119.477379 744.941711,120.909637 739.480164,121.669762 
	C735.751892,122.188660 731.892944,121.769066 727.756531,121.769066 
	C727.756531,111.073441 727.756531,100.683556 727.756531,90.069054 
	C735.112488,90.069054 742.577820,89.522324 749.915161,90.255714 
	C755.053894,90.769348 759.265198,94.202087 760.538574,99.545532 
	C762.124207,106.199188 762.179932,112.809647 756.026245,118.118683 
z"/>
</svg>